<svg width="263" height="128" viewBox="0 0 263 128" fill="none" xmlns="http://www.w3.org/2000/svg">
<path d="M64.2046 9.06922C65.1402 3.82166 69.7035 0 75.0338 0H249.865C256.713 0 261.896 6.1894 260.695 12.9308L241.795 118.931C240.86 124.178 236.296 128 230.966 128H56.1347C49.287 128 44.1035 121.811 45.3055 115.069L64.2046 9.06922Z" fill="#D9D9D9"/>
<path d="M78.0625 49H84.9196V55.8571H78.0625V49ZM78.0625 42.1429H84.9196V49H78.0625V42.1429ZM84.9196 42.1429H91.7768V49H84.9196V42.1429ZM84.9196 49H91.7768V55.8571H84.9196V49ZM84.9196 55.8571H91.7768V62.7143H84.9196V55.8571ZM84.9196 62.7143H91.7768V69.5714H84.9196V62.7143ZM84.9196 69.5714H91.7768V76.4286H84.9196V69.5714ZM78.0625 69.5714H84.9196V76.4286H78.0625V69.5714ZM78.0625 62.7143H84.9196V69.5714H78.0625V62.7143ZM78.0625 55.8571H84.9196V62.7143H78.0625V55.8571ZM78.0625 76.4286H84.9196V83.2857H78.0625V76.4286ZM84.9196 76.4286H91.7768V83.2857H84.9196V76.4286ZM84.9196 83.2857H91.7768V90.1429H84.9196V83.2857ZM84.9196 90.1429H91.7768V97H84.9196V90.1429ZM78.0625 90.1429H84.9196V97H78.0625V90.1429ZM78.0625 83.2857H84.9196V90.1429H78.0625V83.2857ZM112.348 90.1429H119.205V97H112.348V90.1429ZM119.205 83.2857H126.062V90.1429H119.205V83.2857ZM119.205 76.4286H126.062V83.2857H119.205V76.4286ZM119.205 69.5714H126.062V76.4286H119.205V69.5714ZM119.205 62.7143H126.062V69.5714H119.205V62.7143ZM119.205 55.8571H126.062V62.7143H119.205V55.8571ZM119.205 49H126.062V55.8571H119.205V49ZM112.348 62.7143H119.205V69.5714H112.348V62.7143ZM112.348 69.5714H119.205V76.4286H112.348V69.5714ZM112.348 76.4286H119.205V83.2857H112.348V76.4286ZM112.348 83.2857H119.205V90.1429H112.348V83.2857ZM112.348 55.8571H119.205V62.7143H112.348V55.8571ZM91.7768 49H98.6339V55.8571H91.7768V49ZM98.6339 49H105.491V55.8571H98.6339V49ZM105.491 49H112.348V55.8571H105.491V49ZM105.491 42.1429H112.348V49H105.491V42.1429ZM112.348 42.1429H119.205V49H112.348V42.1429ZM112.348 49H119.205V55.8571H112.348V49ZM98.6339 42.1429H105.491V49H98.6339V42.1429ZM78.0625 28.4286H84.9196V35.2857H78.0625V28.4286ZM84.9196 28.4286H91.7768V35.2857H84.9196V28.4286ZM84.9196 35.2857H91.7768V42.1429H84.9196V35.2857ZM78.0625 35.2857H84.9196V42.1429H78.0625V35.2857ZM91.7768 90.1429H98.6339V97H91.7768V90.1429ZM98.6339 90.1429H105.491V97H98.6339V90.1429ZM105.491 90.1429H112.348V97H105.491V90.1429ZM105.491 83.2857H112.348V90.1429H105.491V83.2857ZM98.6339 83.2857H105.491V90.1429H98.6339V83.2857ZM91.7768 83.2857H98.6339V90.1429H91.7768V83.2857ZM132.938 49H139.795V55.8571H132.938V49ZM139.795 55.8571H146.652V62.7143H139.795V55.8571ZM132.938 55.8571H139.795V62.7143H132.938V55.8571ZM132.938 62.7143H139.795V69.5714H132.938V62.7143ZM139.795 62.7143H146.652V69.5714H139.795V62.7143ZM139.795 69.5714H146.652V76.4286H139.795V69.5714ZM146.652 69.5714H153.509V76.4286H146.652V69.5714ZM153.509 69.5714H160.366V76.4286H153.509V69.5714ZM160.366 62.7143H167.223V69.5714H160.366V62.7143ZM153.509 62.7143H160.366V69.5714H153.509V62.7143ZM146.652 62.7143H153.509V69.5714H146.652V62.7143ZM160.366 69.5714H167.223V76.4286H160.366V69.5714ZM167.223 69.5714H174.08V76.4286H167.223V69.5714ZM167.223 76.4286H174.08V83.2857H167.223V76.4286ZM160.366 76.4286H167.223V83.2857H160.366V76.4286ZM160.366 83.2857H167.223V90.1429H160.366V83.2857ZM167.223 83.2857H174.08V90.1429H167.223V83.2857ZM160.366 90.1429H167.223V97H160.366V90.1429ZM153.509 83.2857H160.366V90.1429H153.509V83.2857ZM146.652 83.2857H153.509V90.1429H146.652V83.2857ZM139.795 83.2857H146.652V90.1429H139.795V83.2857ZM132.938 83.2857H139.795V90.1429H132.938V83.2857ZM139.795 90.1429H146.652V97H139.795V90.1429ZM146.652 90.1429H153.509V97H146.652V90.1429ZM153.509 90.1429H160.366V97H153.509V90.1429ZM167.223 49H174.08V55.8571H167.223V49ZM160.366 49H167.223V55.8571H160.366V49ZM160.366 42.1429H167.223V49H160.366V42.1429ZM153.509 42.1429H160.366V49H153.509V42.1429ZM146.652 42.1429H153.509V49H146.652V42.1429ZM139.795 42.1429H146.652V49H139.795V42.1429ZM139.795 49H146.652V55.8571H139.795V49ZM146.652 49H153.509V55.8571H146.652V49ZM153.509 49H160.366V55.8571H153.509V49ZM180.938 49H187.795V55.8571H180.938V49ZM187.795 55.8571H194.652V62.7143H187.795V55.8571ZM180.938 55.8571H187.795V62.7143H180.938V55.8571ZM180.938 62.7143H187.795V69.5714H180.938V62.7143ZM187.795 62.7143H194.652V69.5714H187.795V62.7143ZM187.795 69.5714H194.652V76.4286H187.795V69.5714ZM194.652 69.5714H201.509V76.4286H194.652V69.5714ZM201.509 69.5714H208.366V76.4286H201.509V69.5714ZM208.366 62.7143H215.223V69.5714H208.366V62.7143ZM201.509 62.7143H208.366V69.5714H201.509V62.7143ZM194.652 62.7143H201.509V69.5714H194.652V62.7143ZM208.366 69.5714H215.223V76.4286H208.366V69.5714ZM215.223 69.5714H222.08V76.4286H215.223V69.5714ZM215.223 76.4286H222.08V83.2857H215.223V76.4286ZM208.366 76.4286H215.223V83.2857H208.366V76.4286ZM208.366 83.2857H215.223V90.1429H208.366V83.2857ZM215.223 83.2857H222.08V90.1429H215.223V83.2857ZM208.366 90.1429H215.223V97H208.366V90.1429ZM201.509 83.2857H208.366V90.1429H201.509V83.2857ZM194.652 83.2857H201.509V90.1429H194.652V83.2857ZM187.795 83.2857H194.652V90.1429H187.795V83.2857ZM180.938 83.2857H187.795V90.1429H180.938V83.2857ZM187.795 90.1429H194.652V97H187.795V90.1429ZM194.652 90.1429H201.509V97H194.652V90.1429ZM201.509 90.1429H208.366V97H201.509V90.1429ZM215.223 49H222.08V55.8571H215.223V49ZM208.366 49H215.223V55.8571H208.366V49ZM208.366 42.1429H215.223V49H208.366V42.1429ZM201.509 42.1429H208.366V49H201.509V42.1429ZM194.652 42.1429H201.509V49H194.652V42.1429ZM187.795 42.1429H194.652V49H187.795V42.1429ZM187.795 49H194.652V55.8571H187.795V49ZM194.652 49H201.509V55.8571H194.652V49ZM201.509 49H208.366V55.8571H201.509V49Z" fill="#18181B"/>
<path d="M21.2046 9.06922C22.1402 3.82166 26.7035 0 32.0338 0H40.8473C47.701 0 52.886 6.19972 51.6739 12.9454L32.627 118.945C31.6853 124.186 27.1251 128 21.8004 128H13.1347C6.28701 128 1.10353 121.811 2.30548 115.069L21.2046 9.06922Z" fill="#D9D9D9"/>
</svg>
